<mxfile host="65bd71144e">
    <diagram id="9rj-6rYq0620FnUQyq_z" name="Diagram klas">
        <mxGraphModel dx="2849" dy="771" grid="0" gridSize="10" guides="1" tooltips="1" connect="1" arrows="1" fold="1" page="1" pageScale="1" pageWidth="1700" pageHeight="1100" background="#0066CC" math="0" shadow="1">
            <root>
                <mxCell id="0"/>
                <mxCell id="1" parent="0"/>
                <mxCell id="23" value="«interface»&lt;br&gt;BankTransaction" style="html=1;" parent="1" vertex="1">
                    <mxGeometry x="-820" y="612" width="110" height="50" as="geometry"/>
                </mxCell>
                <mxCell id="30" style="edgeStyle=none;html=1;entryX=0.5;entryY=1;entryDx=0;entryDy=0;endArrow=block;endFill=0;dashed=1;" parent="1" source="24" target="23" edge="1">
                    <mxGeometry relative="1" as="geometry"/>
                </mxCell>
                <mxCell id="24" value="{abstract}&lt;br&gt;&lt;b&gt;AbstractBankTransaction&lt;/b&gt;" style="html=1;" parent="1" vertex="1">
                    <mxGeometry x="-848" y="702" width="166" height="50" as="geometry"/>
                </mxCell>
                <mxCell id="29" style="edgeStyle=none;html=1;entryX=0.5;entryY=1;entryDx=0;entryDy=0;endArrow=block;endFill=0;" parent="1" source="26" target="24" edge="1">
                    <mxGeometry relative="1" as="geometry"/>
                </mxCell>
                <mxCell id="26" value="SantanderTransaction" style="html=1;strokeColor=#FFFFFF;" parent="1" vertex="1">
                    <mxGeometry x="-719" y="818" width="110" height="50" as="geometry"/>
                </mxCell>
                <mxCell id="28" style="edgeStyle=none;html=1;entryX=0.5;entryY=1;entryDx=0;entryDy=0;endArrow=block;endFill=0;" parent="1" source="27" target="24" edge="1">
                    <mxGeometry relative="1" as="geometry"/>
                </mxCell>
                <mxCell id="27" value="MBankTransaction" style="html=1;strokeColor=#FFFFFF;" parent="1" vertex="1">
                    <mxGeometry x="-930" y="815" width="110" height="50" as="geometry"/>
                </mxCell>
                <mxCell id="34" value="«interface»&lt;br&gt;BankStatement" style="html=1;" parent="1" vertex="1">
                    <mxGeometry x="-433.5" y="612" width="110" height="50" as="geometry"/>
                </mxCell>
                <mxCell id="35" style="edgeStyle=none;html=1;entryX=0.5;entryY=1;entryDx=0;entryDy=0;endArrow=block;endFill=0;dashed=1;" parent="1" source="36" target="34" edge="1">
                    <mxGeometry relative="1" as="geometry"/>
                </mxCell>
                <mxCell id="36" value="{abstract}&lt;br&gt;&lt;b&gt;AbstractBankStatement&lt;/b&gt;" style="html=1;" parent="1" vertex="1">
                    <mxGeometry x="-458" y="707" width="165" height="50" as="geometry"/>
                </mxCell>
                <mxCell id="37" style="edgeStyle=none;html=1;entryX=0.5;entryY=1;entryDx=0;entryDy=0;endArrow=block;endFill=0;exitX=0.5;exitY=0;exitDx=0;exitDy=0;" parent="1" source="38" target="36" edge="1">
                    <mxGeometry relative="1" as="geometry">
                        <mxPoint x="-447.5" y="807" as="sourcePoint"/>
                    </mxGeometry>
                </mxCell>
                <mxCell id="38" value="SantanderStatement" style="html=1;strokeColor=#FFFFFF;" parent="1" vertex="1">
                    <mxGeometry x="-345" y="815" width="129" height="50" as="geometry"/>
                </mxCell>
                <mxCell id="39" style="edgeStyle=none;html=1;entryX=0.5;entryY=1;entryDx=0;entryDy=0;endArrow=block;endFill=0;exitX=0.5;exitY=0;exitDx=0;exitDy=0;" parent="1" source="40" target="36" edge="1">
                    <mxGeometry relative="1" as="geometry">
                        <mxPoint x="-297.1091954022986" y="819" as="sourcePoint"/>
                    </mxGeometry>
                </mxCell>
                <mxCell id="40" value="MBankStatement" style="html=1;strokeColor=#FFFFFF;" parent="1" vertex="1">
                    <mxGeometry x="-516" y="815" width="110" height="50" as="geometry"/>
                </mxCell>
                <mxCell id="43" value="" style="endArrow=diamondThin;endFill=0;endSize=24;html=1;exitX=1;exitY=0.5;exitDx=0;exitDy=0;entryX=0;entryY=0.5;entryDx=0;entryDy=0;" parent="1" source="23" target="34" edge="1">
                    <mxGeometry width="160" relative="1" as="geometry">
                        <mxPoint x="-650" y="640.5" as="sourcePoint"/>
                        <mxPoint x="-490" y="640.5" as="targetPoint"/>
                        <Array as="points">
                            <mxPoint x="-452" y="637"/>
                        </Array>
                    </mxGeometry>
                </mxCell>
                <mxCell id="60" style="edgeStyle=none;html=1;entryX=1;entryY=0.5;entryDx=0;entryDy=0;endArrow=classic;endFill=1;" parent="1" source="44" target="58" edge="1">
                    <mxGeometry relative="1" as="geometry"/>
                </mxCell>
                <mxCell id="44" value="App" style="html=1;strokeColor=#FFFFFF;" parent="1" vertex="1">
                    <mxGeometry x="571" y="241" width="110" height="50" as="geometry"/>
                </mxCell>
                <mxCell id="75" style="edgeStyle=none;html=1;entryX=0.5;entryY=0;entryDx=0;entryDy=0;endArrow=classic;endFill=1;" parent="1" source="58" target="70" edge="1">
                    <mxGeometry relative="1" as="geometry"/>
                </mxCell>
                <mxCell id="58" value="ApplicationViewController" style="html=1;strokeColor=#FFFFFF;" parent="1" vertex="1">
                    <mxGeometry x="351" y="241" width="150" height="50" as="geometry"/>
                </mxCell>
                <mxCell id="69" style="edgeStyle=none;html=1;entryX=0;entryY=0.5;entryDx=0;entryDy=0;endArrow=classic;endFill=1;" parent="1" source="70" target="71" edge="1">
                    <mxGeometry relative="1" as="geometry"/>
                </mxCell>
                <mxCell id="70" value="Importer" style="html=1;strokeColor=#FFFFFF;" parent="1" vertex="1">
                    <mxGeometry x="370" y="379" width="110" height="50" as="geometry"/>
                </mxCell>
                <mxCell id="71" value="ParserFactory" style="html=1;strokeColor=#FFFFFF;" parent="1" vertex="1">
                    <mxGeometry x="628" y="379" width="110" height="50" as="geometry"/>
                </mxCell>
                <mxCell id="104" style="edgeStyle=none;html=1;entryX=0.5;entryY=1;entryDx=0;entryDy=0;endArrow=diamondThin;endFill=0;endSize=24;" parent="1" source="82" target="102" edge="1">
                    <mxGeometry relative="1" as="geometry"/>
                </mxCell>
                <mxCell id="82" value="«interface»&lt;br&gt;BankStatementDAO" style="html=1;" parent="1" vertex="1">
                    <mxGeometry x="-369.5" y="225" width="135" height="50" as="geometry"/>
                </mxCell>
                <mxCell id="83" value="{abstract}&lt;br&gt;&lt;b&gt;AbstractBankStatementDAO&lt;/b&gt;" style="html=1;" parent="1" vertex="1">
                    <mxGeometry x="-429" y="325" width="254" height="50" as="geometry"/>
                </mxCell>
                <mxCell id="95" style="edgeStyle=none;html=1;entryX=0.5;entryY=1;entryDx=0;entryDy=0;endArrow=block;endFill=0;" parent="1" source="84" target="83" edge="1">
                    <mxGeometry relative="1" as="geometry"/>
                </mxCell>
                <mxCell id="84" value="MBankStatementDAO" style="html=1;strokeColor=#FFFFFF;" parent="1" vertex="1">
                    <mxGeometry x="-505" y="468" width="167" height="49" as="geometry"/>
                </mxCell>
                <mxCell id="101" style="edgeStyle=none;html=1;entryX=0.5;entryY=1;entryDx=0;entryDy=0;endArrow=block;endFill=0;" parent="1" source="85" target="83" edge="1">
                    <mxGeometry relative="1" as="geometry"/>
                </mxCell>
                <mxCell id="85" value="SantanderStatementDAO" style="html=1;strokeColor=#FFFFFF;" parent="1" vertex="1">
                    <mxGeometry x="-238" y="466.5" width="176" height="52" as="geometry"/>
                </mxCell>
                <mxCell id="106" style="edgeStyle=none;html=1;endArrow=diamondThin;endFill=0;endSize=24;" parent="1" source="86" edge="1">
                    <mxGeometry relative="1" as="geometry">
                        <mxPoint x="-370" y="255" as="targetPoint"/>
                    </mxGeometry>
                </mxCell>
                <mxCell id="86" value="«interface»&lt;br&gt;BankTransactionDAO" style="html=1;" parent="1" vertex="1">
                    <mxGeometry x="-902" y="230" width="158" height="50" as="geometry"/>
                </mxCell>
                <mxCell id="98" style="edgeStyle=none;html=1;entryX=0.5;entryY=1;entryDx=0;entryDy=0;endArrow=block;endFill=0;" parent="1" source="90" target="87" edge="1">
                    <mxGeometry relative="1" as="geometry"/>
                </mxCell>
                <mxCell id="90" value="SantanderTransactionDAO" style="html=1;strokeColor=#FFFFFF;" parent="1" vertex="1">
                    <mxGeometry x="-741" y="471.5" width="160" height="50" as="geometry"/>
                </mxCell>
                <mxCell id="93" style="edgeStyle=none;html=1;endArrow=block;endFill=0;dashed=1;entryX=0.5;entryY=1;entryDx=0;entryDy=0;exitX=0.5;exitY=0;exitDx=0;exitDy=0;" parent="1" source="83" target="82" edge="1">
                    <mxGeometry relative="1" as="geometry">
                        <mxPoint x="-328.5" y="310" as="sourcePoint"/>
                        <mxPoint x="-275.5" y="290" as="targetPoint"/>
                    </mxGeometry>
                </mxCell>
                <mxCell id="103" style="edgeStyle=none;html=1;entryX=0.5;entryY=1;entryDx=0;entryDy=0;endArrow=block;endFill=0;dashed=1;" parent="1" source="87" target="86" edge="1">
                    <mxGeometry relative="1" as="geometry"/>
                </mxCell>
                <mxCell id="87" value="{abstract}&lt;br&gt;&lt;b&gt;AbstractBankTransactionDAO&lt;/b&gt;" style="html=1;" parent="1" vertex="1">
                    <mxGeometry x="-915.5" y="339" width="187" height="50" as="geometry"/>
                </mxCell>
                <mxCell id="97" style="edgeStyle=none;html=1;entryX=0.5;entryY=1;entryDx=0;entryDy=0;endArrow=block;endFill=0;" parent="1" source="89" target="87" edge="1">
                    <mxGeometry relative="1" as="geometry"/>
                </mxCell>
                <mxCell id="89" value="MBankTransactionDAO" style="html=1;strokeColor=#FFFFFF;" parent="1" vertex="1">
                    <mxGeometry x="-1014" y="471.5" width="160" height="50" as="geometry"/>
                </mxCell>
                <mxCell id="102" value="&lt;b&gt;BankStatementRepo&lt;/b&gt;" style="html=1;" parent="1" vertex="1">
                    <mxGeometry x="-379.5" y="84" width="155" height="50" as="geometry"/>
                </mxCell>
                <mxCell id="111" value="«interface»&lt;br&gt;&lt;b&gt;Loader&lt;/b&gt;" style="html=1;" parent="1" vertex="1">
                    <mxGeometry x="120" y="379" width="110" height="50" as="geometry"/>
                </mxCell>
                <mxCell id="112" value="LocalFSLoader" style="html=1;strokeColor=#FFFFFF;" parent="1" vertex="1">
                    <mxGeometry x="120" y="466.5" width="110" height="50" as="geometry"/>
                </mxCell>
                <mxCell id="113" style="edgeStyle=none;html=1;dashed=1;endArrow=block;endFill=0;entryX=0.5;entryY=1;entryDx=0;entryDy=0;exitX=0.5;exitY=0;exitDx=0;exitDy=0;" parent="1" source="112" target="111" edge="1">
                    <mxGeometry relative="1" as="geometry">
                        <mxPoint x="197" y="450" as="sourcePoint"/>
                        <mxPoint x="126" y="401" as="targetPoint"/>
                    </mxGeometry>
                </mxCell>
                <mxCell id="115" style="edgeStyle=none;html=1;entryX=1;entryY=0.5;entryDx=0;entryDy=0;endArrow=classic;endFill=1;endSize=6;startArrow=none;startFill=0;dashed=1;exitX=0;exitY=0.5;exitDx=0;exitDy=0;" parent="1" source="70" target="111" edge="1">
                    <mxGeometry relative="1" as="geometry">
                        <mxPoint x="426" y="504" as="sourcePoint"/>
                        <mxPoint x="726.5" y="504" as="targetPoint"/>
                    </mxGeometry>
                </mxCell>
                <mxCell id="116" style="edgeStyle=none;html=1;entryX=0.5;entryY=0;entryDx=0;entryDy=0;endArrow=classic;endFill=1;exitX=0;exitY=0.5;exitDx=0;exitDy=0;" parent="1" source="58" target="111" edge="1">
                    <mxGeometry relative="1" as="geometry">
                        <mxPoint x="180" y="270" as="sourcePoint"/>
                        <mxPoint x="435" y="388.9999999999999" as="targetPoint"/>
                        <Array as="points">
                            <mxPoint x="175" y="266"/>
                        </Array>
                    </mxGeometry>
                </mxCell>
                <mxCell id="118" value="«interface»&lt;br&gt;&lt;b&gt;Converter&lt;/b&gt;" style="html=1;" parent="1" vertex="1">
                    <mxGeometry x="914.5" y="974.5" width="110" height="50" as="geometry"/>
                </mxCell>
                <mxCell id="119" value="ParserField" style="html=1;strokeColor=#FFFFFF;" parent="1" vertex="1">
                    <mxGeometry x="914.5" y="836.5" width="106.5" height="50" as="geometry"/>
                </mxCell>
                <mxCell id="120" value="«interface»&lt;br&gt;&lt;b&gt;RawDataParser&lt;/b&gt;" style="html=1;" parent="1" vertex="1">
                    <mxGeometry x="1129.5" y="776.5" width="110" height="50" as="geometry"/>
                </mxCell>
                <mxCell id="121" value="CSVRawDataParser" style="html=1;strokeColor=#FFFFFF;" parent="1" vertex="1">
                    <mxGeometry x="1107.5" y="889.5" width="154" height="50" as="geometry"/>
                </mxCell>
                <mxCell id="123" value="«interface»&lt;br&gt;&lt;b&gt;Extractor&lt;/b&gt;" style="html=1;" parent="1" vertex="1">
                    <mxGeometry x="247" y="786.5" width="110" height="50" as="geometry"/>
                </mxCell>
                <mxCell id="124" value="SantanderCSVExtractor" style="html=1;strokeColor=#FFFFFF;" parent="1" vertex="1">
                    <mxGeometry x="113.5" y="905.5" width="155.5" height="50" as="geometry"/>
                </mxCell>
                <mxCell id="125" value="MBankCSVExtractor" style="html=1;strokeColor=#FFFFFF;" parent="1" vertex="1">
                    <mxGeometry x="340.5" y="905.5" width="139" height="50" as="geometry"/>
                </mxCell>
                <mxCell id="126" value="{abstract}&lt;br&gt;&lt;b&gt;AbstractParser&lt;/b&gt;" style="html=1;" parent="1" vertex="1">
                    <mxGeometry x="589.5" y="605" width="187" height="50" as="geometry"/>
                </mxCell>
                <mxCell id="128" value="SantanderCSVParser" style="html=1;strokeColor=#FFFFFF;" parent="1" vertex="1">
                    <mxGeometry x="525.5" y="852.5" width="137" height="50" as="geometry"/>
                </mxCell>
                <mxCell id="129" value="MBankCSVParser" style="html=1;strokeColor=#FFFFFF;" parent="1" vertex="1">
                    <mxGeometry x="721.5" y="855.5" width="135" height="50" as="geometry"/>
                </mxCell>
                <mxCell id="130" style="edgeStyle=none;html=1;endArrow=block;endFill=0;entryX=0.5;entryY=1;entryDx=0;entryDy=0;exitX=0.5;exitY=0;exitDx=0;exitDy=0;" parent="1" source="128" target="149" edge="1">
                    <mxGeometry relative="1" as="geometry">
                        <mxPoint x="621.5" y="743" as="sourcePoint"/>
                        <mxPoint x="556.5" y="697" as="targetPoint"/>
                    </mxGeometry>
                </mxCell>
                <mxCell id="132" style="edgeStyle=none;html=1;endArrow=block;endFill=0;entryX=0.5;entryY=1;entryDx=0;entryDy=0;exitX=0.5;exitY=0;exitDx=0;exitDy=0;" parent="1" source="129" target="150" edge="1">
                    <mxGeometry relative="1" as="geometry">
                        <mxPoint x="617.5" y="761" as="sourcePoint"/>
                        <mxPoint x="693" y="665" as="targetPoint"/>
                    </mxGeometry>
                </mxCell>
                <mxCell id="133" style="edgeStyle=none;html=1;dashed=1;endArrow=block;endFill=0;entryX=0.5;entryY=1;entryDx=0;entryDy=0;exitX=0.5;exitY=0;exitDx=0;exitDy=0;" parent="1" source="121" target="120" edge="1">
                    <mxGeometry relative="1" as="geometry">
                        <mxPoint x="598" y="768" as="sourcePoint"/>
                        <mxPoint x="598" y="730.5" as="targetPoint"/>
                    </mxGeometry>
                </mxCell>
                <mxCell id="134" style="edgeStyle=none;html=1;dashed=1;endArrow=block;endFill=0;entryX=0.5;entryY=1;entryDx=0;entryDy=0;exitX=0.5;exitY=0;exitDx=0;exitDy=0;" parent="1" source="124" target="123" edge="1">
                    <mxGeometry relative="1" as="geometry">
                        <mxPoint x="362" y="665.5" as="sourcePoint"/>
                        <mxPoint x="359.5" y="601.5" as="targetPoint"/>
                    </mxGeometry>
                </mxCell>
                <mxCell id="135" style="edgeStyle=none;html=1;dashed=1;endArrow=block;endFill=0;exitX=0.5;exitY=0;exitDx=0;exitDy=0;entryX=0.5;entryY=1;entryDx=0;entryDy=0;" parent="1" source="125" target="123" edge="1">
                    <mxGeometry relative="1" as="geometry">
                        <mxPoint x="212.5" y="915.5" as="sourcePoint"/>
                        <mxPoint x="311" y="842.5" as="targetPoint"/>
                    </mxGeometry>
                </mxCell>
                <mxCell id="136" style="edgeStyle=none;html=1;entryX=0.5;entryY=0;entryDx=0;entryDy=0;endArrow=classic;endFill=1;exitX=1;exitY=0.5;exitDx=0;exitDy=0;" parent="1" source="126" target="120" edge="1">
                    <mxGeometry relative="1" as="geometry">
                        <mxPoint x="559.5" y="500.5" as="sourcePoint"/>
                        <mxPoint x="796" y="500.5" as="targetPoint"/>
                    </mxGeometry>
                </mxCell>
                <mxCell id="138" style="edgeStyle=none;html=1;entryX=0.5;entryY=0;entryDx=0;entryDy=0;endArrow=classic;endFill=1;exitX=0.5;exitY=1;exitDx=0;exitDy=0;" parent="1" source="119" target="118" edge="1">
                    <mxGeometry relative="1" as="geometry">
                        <mxPoint x="282.5" y="1067" as="sourcePoint"/>
                        <mxPoint x="629.48" y="923" as="targetPoint"/>
                    </mxGeometry>
                </mxCell>
                <mxCell id="141" style="edgeStyle=none;html=1;endArrow=classic;endFill=1;endSize=6;startArrow=none;startFill=0;dashed=1;entryX=1;entryY=0.5;entryDx=0;entryDy=0;exitX=0;exitY=0.5;exitDx=0;exitDy=0;" parent="1" source="120" target="119" edge="1">
                    <mxGeometry relative="1" as="geometry">
                        <mxPoint x="1106.5" y="777.5" as="sourcePoint"/>
                        <mxPoint x="993.5" y="929.5" as="targetPoint"/>
                    </mxGeometry>
                </mxCell>
                <mxCell id="142" style="edgeStyle=none;html=1;entryX=0.5;entryY=0;entryDx=0;entryDy=0;endArrow=classic;endFill=1;exitX=0;exitY=0.5;exitDx=0;exitDy=0;" parent="1" source="126" target="123" edge="1">
                    <mxGeometry relative="1" as="geometry">
                        <mxPoint x="786.5" y="640" as="sourcePoint"/>
                        <mxPoint x="960.5" y="872.5" as="targetPoint"/>
                    </mxGeometry>
                </mxCell>
                <mxCell id="147" style="edgeStyle=none;html=1;endArrow=classic;endFill=1;endSize=6;startArrow=none;startFill=0;dashed=1;exitX=0.5;exitY=1;exitDx=0;exitDy=0;entryX=0.5;entryY=0;entryDx=0;entryDy=0;" parent="1" source="70" target="153" edge="1">
                    <mxGeometry relative="1" as="geometry">
                        <mxPoint x="836" y="811" as="sourcePoint"/>
                        <mxPoint x="680" y="486" as="targetPoint"/>
                    </mxGeometry>
                </mxCell>
                <mxCell id="148" style="edgeStyle=none;html=1;endArrow=classic;endFill=1;endSize=6;startArrow=none;startFill=0;dashed=1;exitX=0.5;exitY=1;exitDx=0;exitDy=0;entryX=0.5;entryY=0;entryDx=0;entryDy=0;" parent="1" source="71" target="153" edge="1">
                    <mxGeometry relative="1" as="geometry">
                        <mxPoint x="441" y="439" as="sourcePoint"/>
                        <mxPoint x="709" y="493" as="targetPoint"/>
                    </mxGeometry>
                </mxCell>
                <mxCell id="149" value="{abstract}&lt;br&gt;&lt;b&gt;SantanderParser&lt;br&gt;&lt;/b&gt;" style="html=1;" parent="1" vertex="1">
                    <mxGeometry x="523.5" y="740.5" width="139" height="50" as="geometry"/>
                </mxCell>
                <mxCell id="150" value="{abstract}&lt;br&gt;&lt;b&gt;MBankParser&lt;br&gt;&lt;/b&gt;" style="html=1;" parent="1" vertex="1">
                    <mxGeometry x="722.5" y="740.5" width="133" height="50" as="geometry"/>
                </mxCell>
                <mxCell id="151" style="edgeStyle=none;html=1;endArrow=block;endFill=0;entryX=0.5;entryY=1;entryDx=0;entryDy=0;exitX=0.5;exitY=0;exitDx=0;exitDy=0;" parent="1" source="150" target="126" edge="1">
                    <mxGeometry relative="1" as="geometry">
                        <mxPoint x="799" y="862.5" as="sourcePoint"/>
                        <mxPoint x="799" y="800.5" as="targetPoint"/>
                    </mxGeometry>
                </mxCell>
                <mxCell id="152" style="edgeStyle=none;html=1;endArrow=block;endFill=0;entryX=0.5;entryY=1;entryDx=0;entryDy=0;exitX=0.5;exitY=0;exitDx=0;exitDy=0;" parent="1" source="149" target="126" edge="1">
                    <mxGeometry relative="1" as="geometry">
                        <mxPoint x="799" y="750.5" as="sourcePoint"/>
                        <mxPoint x="693" y="665" as="targetPoint"/>
                    </mxGeometry>
                </mxCell>
                <mxCell id="153" value="«interface»&lt;br&gt;&lt;b&gt;BankParser&lt;/b&gt;" style="html=1;" parent="1" vertex="1">
                    <mxGeometry x="628" y="501" width="110" height="50" as="geometry"/>
                </mxCell>
                <mxCell id="154" style="edgeStyle=none;html=1;dashed=1;endArrow=block;endFill=0;exitX=0.5;exitY=0;exitDx=0;exitDy=0;entryX=0.5;entryY=1;entryDx=0;entryDy=0;" parent="1" source="126" target="153" edge="1">
                    <mxGeometry relative="1" as="geometry">
                        <mxPoint x="420" y="915.5" as="sourcePoint"/>
                        <mxPoint x="311.99999999999955" y="846.5" as="targetPoint"/>
                    </mxGeometry>
                </mxCell>
            </root>
        </mxGraphModel>
    </diagram>
    <diagram name="klasy z metodami" id="agTFWFtq0C2pHBZe1AcX">
        <mxGraphModel grid="0" gridSize="10" guides="1" tooltips="1" connect="1" arrows="1" page="1" fold="1" pageScale="1" pageWidth="1100" pageHeight="1700" background="#000099" math="0" shadow="1">
            <root>
                <mxCell id="LFyHHrzgRgcjyiM7V5c0-0"/>
                <mxCell id="LFyHHrzgRgcjyiM7V5c0-1" parent="LFyHHrzgRgcjyiM7V5c0-0"/>
                <mxCell id="LFyHHrzgRgcjyiM7V5c0-2" value="&amp;laquo;interface&amp;raquo;&lt;br&gt;&lt;b&gt;Name&lt;/b&gt;" style="html=1;" parent="LFyHHrzgRgcjyiM7V5c0-1" vertex="1">
                    <mxGeometry x="10" y="10" width="110" height="50" as="geometry"/>
                </mxCell>
                <mxCell id="LFyHHrzgRgcjyiM7V5c0-3" value="KlasaJakaś" style="html=1;strokeColor=#FFFFFF;" parent="LFyHHrzgRgcjyiM7V5c0-1" vertex="1">
                    <mxGeometry x="250" y="10" width="110" height="50" as="geometry"/>
                </mxCell>
                <mxCell id="LFyHHrzgRgcjyiM7V5c0-4" value="{abstract}&lt;br&gt;&lt;b&gt;Name&lt;/b&gt;" style="html=1;" parent="LFyHHrzgRgcjyiM7V5c0-1" vertex="1">
                    <mxGeometry x="130" y="10" width="110" height="50" as="geometry"/>
                </mxCell>
                <mxCell id="LFyHHrzgRgcjyiM7V5c0-5" value="«interface»&lt;br&gt;BankTransaction" style="html=1;" parent="LFyHHrzgRgcjyiM7V5c0-1" vertex="1">
                    <mxGeometry x="170" y="240" width="110" height="50" as="geometry"/>
                </mxCell>
                <mxCell id="LFyHHrzgRgcjyiM7V5c0-6" style="edgeStyle=none;html=1;entryX=0.5;entryY=1;entryDx=0;entryDy=0;endArrow=block;endFill=0;dashed=1;" parent="LFyHHrzgRgcjyiM7V5c0-1" source="LFyHHrzgRgcjyiM7V5c0-7" target="LFyHHrzgRgcjyiM7V5c0-5" edge="1">
                    <mxGeometry relative="1" as="geometry"/>
                </mxCell>
                <mxCell id="LFyHHrzgRgcjyiM7V5c0-7" value="{abstract}&lt;br&gt;&lt;b&gt;AbstractBankTransaction&lt;/b&gt;" style="html=1;" parent="LFyHHrzgRgcjyiM7V5c0-1" vertex="1">
                    <mxGeometry x="142" y="330" width="166" height="50" as="geometry"/>
                </mxCell>
                <mxCell id="LFyHHrzgRgcjyiM7V5c0-8" style="edgeStyle=none;html=1;entryX=0.5;entryY=1;entryDx=0;entryDy=0;endArrow=block;endFill=0;" parent="LFyHHrzgRgcjyiM7V5c0-1" source="LFyHHrzgRgcjyiM7V5c0-9" target="LFyHHrzgRgcjyiM7V5c0-7" edge="1">
                    <mxGeometry relative="1" as="geometry"/>
                </mxCell>
                <mxCell id="LFyHHrzgRgcjyiM7V5c0-9" value="SantanderTransaction" style="html=1;strokeColor=#FFFFFF;" parent="LFyHHrzgRgcjyiM7V5c0-1" vertex="1">
                    <mxGeometry x="271" y="446" width="110" height="50" as="geometry"/>
                </mxCell>
                <mxCell id="LFyHHrzgRgcjyiM7V5c0-10" style="edgeStyle=none;html=1;entryX=0.5;entryY=1;entryDx=0;entryDy=0;endArrow=block;endFill=0;" parent="LFyHHrzgRgcjyiM7V5c0-1" source="LFyHHrzgRgcjyiM7V5c0-11" target="LFyHHrzgRgcjyiM7V5c0-7" edge="1">
                    <mxGeometry relative="1" as="geometry"/>
                </mxCell>
                <mxCell id="LFyHHrzgRgcjyiM7V5c0-11" value="MBankTransaction" style="html=1;strokeColor=#FFFFFF;" parent="LFyHHrzgRgcjyiM7V5c0-1" vertex="1">
                    <mxGeometry x="60" y="443" width="110" height="50" as="geometry"/>
                </mxCell>
                <mxCell id="LFyHHrzgRgcjyiM7V5c0-12" value="«interface»&lt;br&gt;BankStatement" style="html=1;" parent="LFyHHrzgRgcjyiM7V5c0-1" vertex="1">
                    <mxGeometry x="556.5" y="240" width="110" height="50" as="geometry"/>
                </mxCell>
                <mxCell id="LFyHHrzgRgcjyiM7V5c0-13" style="edgeStyle=none;html=1;entryX=0.5;entryY=1;entryDx=0;entryDy=0;endArrow=block;endFill=0;dashed=1;" parent="LFyHHrzgRgcjyiM7V5c0-1" source="LFyHHrzgRgcjyiM7V5c0-14" target="LFyHHrzgRgcjyiM7V5c0-12" edge="1">
                    <mxGeometry relative="1" as="geometry"/>
                </mxCell>
                <mxCell id="LFyHHrzgRgcjyiM7V5c0-14" value="{abstract}&lt;br&gt;&lt;b&gt;AbstractBankStatement&lt;/b&gt;" style="html=1;" parent="LFyHHrzgRgcjyiM7V5c0-1" vertex="1">
                    <mxGeometry x="532" y="335" width="165" height="50" as="geometry"/>
                </mxCell>
                <mxCell id="LFyHHrzgRgcjyiM7V5c0-15" style="edgeStyle=none;html=1;entryX=0.5;entryY=1;entryDx=0;entryDy=0;endArrow=block;endFill=0;exitX=0.5;exitY=0;exitDx=0;exitDy=0;" parent="LFyHHrzgRgcjyiM7V5c0-1" source="LFyHHrzgRgcjyiM7V5c0-16" target="LFyHHrzgRgcjyiM7V5c0-14" edge="1">
                    <mxGeometry relative="1" as="geometry">
                        <mxPoint x="542.5" y="435" as="sourcePoint"/>
                    </mxGeometry>
                </mxCell>
                <mxCell id="LFyHHrzgRgcjyiM7V5c0-16" value="SantanderStatement" style="html=1;strokeColor=#FFFFFF;" parent="LFyHHrzgRgcjyiM7V5c0-1" vertex="1">
                    <mxGeometry x="645" y="443" width="129" height="50" as="geometry"/>
                </mxCell>
                <mxCell id="LFyHHrzgRgcjyiM7V5c0-17" style="edgeStyle=none;html=1;entryX=0.5;entryY=1;entryDx=0;entryDy=0;endArrow=block;endFill=0;exitX=0.5;exitY=0;exitDx=0;exitDy=0;" parent="LFyHHrzgRgcjyiM7V5c0-1" source="LFyHHrzgRgcjyiM7V5c0-18" target="LFyHHrzgRgcjyiM7V5c0-14" edge="1">
                    <mxGeometry relative="1" as="geometry">
                        <mxPoint x="692.8908045977014" y="447" as="sourcePoint"/>
                    </mxGeometry>
                </mxCell>
                <mxCell id="LFyHHrzgRgcjyiM7V5c0-18" value="MBankStatement" style="html=1;strokeColor=#FFFFFF;" parent="LFyHHrzgRgcjyiM7V5c0-1" vertex="1">
                    <mxGeometry x="474" y="443" width="110" height="50" as="geometry"/>
                </mxCell>
                <mxCell id="LFyHHrzgRgcjyiM7V5c0-19" value="" style="endArrow=diamondThin;endFill=0;endSize=24;html=1;exitX=1;exitY=0.5;exitDx=0;exitDy=0;entryX=0;entryY=0.5;entryDx=0;entryDy=0;" parent="LFyHHrzgRgcjyiM7V5c0-1" source="LFyHHrzgRgcjyiM7V5c0-5" target="LFyHHrzgRgcjyiM7V5c0-12" edge="1">
                    <mxGeometry width="160" relative="1" as="geometry">
                        <mxPoint x="340" y="268.5" as="sourcePoint"/>
                        <mxPoint x="500" y="268.5" as="targetPoint"/>
                        <Array as="points">
                            <mxPoint x="538" y="265"/>
                        </Array>
                    </mxGeometry>
                </mxCell>
                <mxCell id="LFyHHrzgRgcjyiM7V5c0-20" style="edgeStyle=none;html=1;entryX=1;entryY=0.5;entryDx=0;entryDy=0;endArrow=classic;endFill=1;" parent="LFyHHrzgRgcjyiM7V5c0-1" source="LFyHHrzgRgcjyiM7V5c0-22" target="LFyHHrzgRgcjyiM7V5c0-24" edge="1">
                    <mxGeometry relative="1" as="geometry"/>
                </mxCell>
                <mxCell id="LFyHHrzgRgcjyiM7V5c0-21" style="edgeStyle=none;html=1;entryX=0;entryY=0.5;entryDx=0;entryDy=0;startArrow=none;startFill=0;endArrow=classic;endFill=1;endSize=6;" parent="LFyHHrzgRgcjyiM7V5c0-1" source="LFyHHrzgRgcjyiM7V5c0-22" target="LFyHHrzgRgcjyiM7V5c0-48" edge="1">
                    <mxGeometry relative="1" as="geometry"/>
                </mxCell>
                <mxCell id="LFyHHrzgRgcjyiM7V5c0-22" value="App" style="html=1;strokeColor=#FFFFFF;" parent="LFyHHrzgRgcjyiM7V5c0-1" vertex="1">
                    <mxGeometry x="701" y="550" width="110" height="50" as="geometry"/>
                </mxCell>
                <mxCell id="LFyHHrzgRgcjyiM7V5c0-23" style="edgeStyle=none;html=1;entryX=0.5;entryY=0;entryDx=0;entryDy=0;endArrow=classic;endFill=1;" parent="LFyHHrzgRgcjyiM7V5c0-1" source="LFyHHrzgRgcjyiM7V5c0-24" target="LFyHHrzgRgcjyiM7V5c0-34" edge="1">
                    <mxGeometry relative="1" as="geometry"/>
                </mxCell>
                <mxCell id="LFyHHrzgRgcjyiM7V5c0-24" value="ApplicationViewController" style="html=1;strokeColor=#FFFFFF;" parent="LFyHHrzgRgcjyiM7V5c0-1" vertex="1">
                    <mxGeometry x="481" y="550" width="150" height="50" as="geometry"/>
                </mxCell>
                <mxCell id="LFyHHrzgRgcjyiM7V5c0-25" style="edgeStyle=none;html=1;entryX=0.5;entryY=1;entryDx=0;entryDy=0;dashed=1;endArrow=diamondThin;endFill=1;endSize=18;" parent="LFyHHrzgRgcjyiM7V5c0-1" source="LFyHHrzgRgcjyiM7V5c0-26" target="LFyHHrzgRgcjyiM7V5c0-34" edge="1">
                    <mxGeometry relative="1" as="geometry"/>
                </mxCell>
                <mxCell id="LFyHHrzgRgcjyiM7V5c0-26" value="Loader" style="html=1;strokeColor=#FFFFFF;" parent="LFyHHrzgRgcjyiM7V5c0-1" vertex="1">
                    <mxGeometry x="500" y="778" width="110" height="50" as="geometry"/>
                </mxCell>
                <mxCell id="LFyHHrzgRgcjyiM7V5c0-27" value="«interface»&lt;br&gt;&lt;b&gt;Parser&lt;/b&gt;" style="html=1;" parent="LFyHHrzgRgcjyiM7V5c0-1" vertex="1">
                    <mxGeometry x="760" y="778" width="110" height="50" as="geometry"/>
                </mxCell>
                <mxCell id="LFyHHrzgRgcjyiM7V5c0-28" style="edgeStyle=none;html=1;entryX=0.5;entryY=1;entryDx=0;entryDy=0;dashed=1;endArrow=block;endFill=0;" parent="LFyHHrzgRgcjyiM7V5c0-1" source="LFyHHrzgRgcjyiM7V5c0-29" target="LFyHHrzgRgcjyiM7V5c0-27" edge="1">
                    <mxGeometry relative="1" as="geometry"/>
                </mxCell>
                <mxCell id="LFyHHrzgRgcjyiM7V5c0-29" value="SantanderParser" style="html=1;strokeColor=#FFFFFF;" parent="LFyHHrzgRgcjyiM7V5c0-1" vertex="1">
                    <mxGeometry x="689" y="858" width="110" height="50" as="geometry"/>
                </mxCell>
                <mxCell id="LFyHHrzgRgcjyiM7V5c0-30" style="edgeStyle=none;html=1;entryX=0.5;entryY=1;entryDx=0;entryDy=0;dashed=1;endArrow=block;endFill=0;" parent="LFyHHrzgRgcjyiM7V5c0-1" source="LFyHHrzgRgcjyiM7V5c0-31" target="LFyHHrzgRgcjyiM7V5c0-27" edge="1">
                    <mxGeometry relative="1" as="geometry"/>
                </mxCell>
                <mxCell id="LFyHHrzgRgcjyiM7V5c0-31" value="MBankParser" style="html=1;strokeColor=#FFFFFF;" parent="LFyHHrzgRgcjyiM7V5c0-1" vertex="1">
                    <mxGeometry x="840" y="858" width="110" height="50" as="geometry"/>
                </mxCell>
                <mxCell id="LFyHHrzgRgcjyiM7V5c0-32" style="edgeStyle=none;html=1;entryX=0;entryY=0.5;entryDx=0;entryDy=0;endArrow=classic;endFill=1;" parent="LFyHHrzgRgcjyiM7V5c0-1" source="LFyHHrzgRgcjyiM7V5c0-34" target="LFyHHrzgRgcjyiM7V5c0-36" edge="1">
                    <mxGeometry relative="1" as="geometry"/>
                </mxCell>
                <mxCell id="LFyHHrzgRgcjyiM7V5c0-33" style="edgeStyle=none;html=1;entryX=0;entryY=0.5;entryDx=0;entryDy=0;endArrow=classic;endFill=1;endSize=6;startArrow=none;startFill=0;dashed=1;" parent="LFyHHrzgRgcjyiM7V5c0-1" source="LFyHHrzgRgcjyiM7V5c0-34" target="LFyHHrzgRgcjyiM7V5c0-27" edge="1">
                    <mxGeometry relative="1" as="geometry"/>
                </mxCell>
                <mxCell id="LFyHHrzgRgcjyiM7V5c0-34" value="Importer" style="html=1;strokeColor=#FFFFFF;" parent="LFyHHrzgRgcjyiM7V5c0-1" vertex="1">
                    <mxGeometry x="500" y="688" width="110" height="50" as="geometry"/>
                </mxCell>
                <mxCell id="LFyHHrzgRgcjyiM7V5c0-35" style="edgeStyle=none;html=1;entryX=0.5;entryY=0;entryDx=0;entryDy=0;dashed=1;" parent="LFyHHrzgRgcjyiM7V5c0-1" source="LFyHHrzgRgcjyiM7V5c0-36" target="LFyHHrzgRgcjyiM7V5c0-27" edge="1">
                    <mxGeometry relative="1" as="geometry"/>
                </mxCell>
                <mxCell id="LFyHHrzgRgcjyiM7V5c0-36" value="ParserFactory" style="html=1;strokeColor=#FFFFFF;" parent="LFyHHrzgRgcjyiM7V5c0-1" vertex="1">
                    <mxGeometry x="760" y="688" width="110" height="50" as="geometry"/>
                </mxCell>
                <mxCell id="LFyHHrzgRgcjyiM7V5c0-37" style="edgeStyle=none;html=1;entryX=0.5;entryY=1;entryDx=0;entryDy=0;endArrow=diamondThin;endFill=0;endSize=24;" parent="LFyHHrzgRgcjyiM7V5c0-1" source="LFyHHrzgRgcjyiM7V5c0-38" target="LFyHHrzgRgcjyiM7V5c0-54" edge="1">
                    <mxGeometry relative="1" as="geometry"/>
                </mxCell>
                <mxCell id="LFyHHrzgRgcjyiM7V5c0-38" value="«interface»&lt;br&gt;BankStatementDAO" style="html=1;" parent="LFyHHrzgRgcjyiM7V5c0-1" vertex="1">
                    <mxGeometry x="-369.5" y="225" width="135" height="50" as="geometry"/>
                </mxCell>
                <mxCell id="LFyHHrzgRgcjyiM7V5c0-39" value="{abstract}&lt;br&gt;&lt;b&gt;AbstractBankStatementDAO&lt;/b&gt;" style="html=1;" parent="LFyHHrzgRgcjyiM7V5c0-1" vertex="1">
                    <mxGeometry x="-429" y="325" width="254" height="50" as="geometry"/>
                </mxCell>
                <mxCell id="LFyHHrzgRgcjyiM7V5c0-40" style="edgeStyle=none;html=1;entryX=0.5;entryY=1;entryDx=0;entryDy=0;endArrow=block;endFill=0;" parent="LFyHHrzgRgcjyiM7V5c0-1" source="LFyHHrzgRgcjyiM7V5c0-41" target="LFyHHrzgRgcjyiM7V5c0-39" edge="1">
                    <mxGeometry relative="1" as="geometry"/>
                </mxCell>
                <mxCell id="LFyHHrzgRgcjyiM7V5c0-41" value="MBankStatementDAO" style="html=1;strokeColor=#FFFFFF;" parent="LFyHHrzgRgcjyiM7V5c0-1" vertex="1">
                    <mxGeometry x="-505" y="468" width="167" height="49" as="geometry"/>
                </mxCell>
                <mxCell id="LFyHHrzgRgcjyiM7V5c0-42" style="edgeStyle=none;html=1;entryX=0.5;entryY=1;entryDx=0;entryDy=0;endArrow=block;endFill=0;" parent="LFyHHrzgRgcjyiM7V5c0-1" source="LFyHHrzgRgcjyiM7V5c0-43" target="LFyHHrzgRgcjyiM7V5c0-39" edge="1">
                    <mxGeometry relative="1" as="geometry"/>
                </mxCell>
                <mxCell id="LFyHHrzgRgcjyiM7V5c0-43" value="SantanderStatementDAO" style="html=1;strokeColor=#FFFFFF;" parent="LFyHHrzgRgcjyiM7V5c0-1" vertex="1">
                    <mxGeometry x="-238" y="466.5" width="176" height="52" as="geometry"/>
                </mxCell>
                <mxCell id="LFyHHrzgRgcjyiM7V5c0-44" style="edgeStyle=none;html=1;endArrow=diamondThin;endFill=0;endSize=24;exitX=1.019;exitY=0.186;exitDx=0;exitDy=0;exitPerimeter=0;" parent="LFyHHrzgRgcjyiM7V5c0-1" source="q7msI4KpLClDXLdM6Ijj-6" edge="1">
                    <mxGeometry relative="1" as="geometry">
                        <mxPoint x="-370" y="255" as="targetPoint"/>
                        <mxPoint x="-744" y="255" as="sourcePoint"/>
                    </mxGeometry>
                </mxCell>
                <mxCell id="LFyHHrzgRgcjyiM7V5c0-46" style="edgeStyle=none;html=1;entryX=0.5;entryY=1;entryDx=0;entryDy=0;endArrow=block;endFill=0;" parent="LFyHHrzgRgcjyiM7V5c0-1" source="LFyHHrzgRgcjyiM7V5c0-47" target="LFyHHrzgRgcjyiM7V5c0-51" edge="1">
                    <mxGeometry relative="1" as="geometry"/>
                </mxCell>
                <mxCell id="LFyHHrzgRgcjyiM7V5c0-47" value="SantanderTransactionDAO" style="html=1;strokeColor=#FFFFFF;" parent="LFyHHrzgRgcjyiM7V5c0-1" vertex="1">
                    <mxGeometry x="-747" y="471.5" width="160" height="50" as="geometry"/>
                </mxCell>
                <mxCell id="LFyHHrzgRgcjyiM7V5c0-48" value="DatabaseSessionFactory" style="html=1;strokeColor=#FFFFFF;" parent="LFyHHrzgRgcjyiM7V5c0-1" vertex="1">
                    <mxGeometry x="890" y="550" width="170" height="50" as="geometry"/>
                </mxCell>
                <mxCell id="LFyHHrzgRgcjyiM7V5c0-49" style="edgeStyle=none;html=1;endArrow=block;endFill=0;dashed=1;entryX=0.5;entryY=1;entryDx=0;entryDy=0;exitX=0.5;exitY=0;exitDx=0;exitDy=0;" parent="LFyHHrzgRgcjyiM7V5c0-1" source="LFyHHrzgRgcjyiM7V5c0-39" target="LFyHHrzgRgcjyiM7V5c0-38" edge="1">
                    <mxGeometry relative="1" as="geometry">
                        <mxPoint x="-328.5" y="310" as="sourcePoint"/>
                        <mxPoint x="-275.5" y="290" as="targetPoint"/>
                    </mxGeometry>
                </mxCell>
                <mxCell id="LFyHHrzgRgcjyiM7V5c0-50" style="edgeStyle=none;html=1;endArrow=block;endFill=0;dashed=1;entryX=0.488;entryY=0.995;entryDx=0;entryDy=0;entryPerimeter=0;" parent="LFyHHrzgRgcjyiM7V5c0-1" source="LFyHHrzgRgcjyiM7V5c0-51" target="q7msI4KpLClDXLdM6Ijj-7" edge="1">
                    <mxGeometry relative="1" as="geometry">
                        <mxPoint x="-830" y="310" as="targetPoint"/>
                    </mxGeometry>
                </mxCell>
                <mxCell id="LFyHHrzgRgcjyiM7V5c0-51" value="{abstract}&lt;br&gt;&lt;b&gt;AbstractBankTransactionDAO&lt;/b&gt;" style="html=1;" parent="LFyHHrzgRgcjyiM7V5c0-1" vertex="1">
                    <mxGeometry x="-921.5" y="339" width="187" height="50" as="geometry"/>
                </mxCell>
                <mxCell id="LFyHHrzgRgcjyiM7V5c0-52" style="edgeStyle=none;html=1;entryX=0.5;entryY=1;entryDx=0;entryDy=0;endArrow=block;endFill=0;" parent="LFyHHrzgRgcjyiM7V5c0-1" source="LFyHHrzgRgcjyiM7V5c0-53" target="LFyHHrzgRgcjyiM7V5c0-51" edge="1">
                    <mxGeometry relative="1" as="geometry"/>
                </mxCell>
                <mxCell id="LFyHHrzgRgcjyiM7V5c0-53" value="MBankTransactionDAO" style="html=1;strokeColor=#FFFFFF;" parent="LFyHHrzgRgcjyiM7V5c0-1" vertex="1">
                    <mxGeometry x="-1020" y="471.5" width="160" height="50" as="geometry"/>
                </mxCell>
                <mxCell id="LFyHHrzgRgcjyiM7V5c0-54" value="&lt;b&gt;BankStatementRepo&lt;/b&gt;" style="html=1;" parent="LFyHHrzgRgcjyiM7V5c0-1" vertex="1">
                    <mxGeometry x="-379.5" y="84" width="155" height="50" as="geometry"/>
                </mxCell>
                <mxCell id="LFyHHrzgRgcjyiM7V5c0-55" value="Classname" style="swimlane;fontStyle=0;childLayout=stackLayout;horizontal=1;startSize=26;horizontalStack=0;resizeParent=1;resizeParentMax=0;resizeLast=0;collapsible=1;marginBottom=0;" parent="LFyHHrzgRgcjyiM7V5c0-1" vertex="1">
                    <mxGeometry x="145" y="694" width="140" height="104" as="geometry">
                        <mxRectangle x="145" y="694" width="87" height="26" as="alternateBounds"/>
                    </mxGeometry>
                </mxCell>
                <mxCell id="LFyHHrzgRgcjyiM7V5c0-56" value="+ field: type" style="text;strokeColor=none;fillColor=none;align=left;verticalAlign=top;spacingLeft=4;spacingRight=4;overflow=hidden;rotatable=0;points=[[0,0.5],[1,0.5]];portConstraint=eastwest;" parent="LFyHHrzgRgcjyiM7V5c0-55" vertex="1">
                    <mxGeometry y="26" width="140" height="26" as="geometry"/>
                </mxCell>
                <mxCell id="LFyHHrzgRgcjyiM7V5c0-57" value="+ field: type" style="text;align=left;verticalAlign=top;spacingLeft=4;spacingRight=4;overflow=hidden;rotatable=0;points=[[0,0.5],[1,0.5]];portConstraint=eastwest;" parent="LFyHHrzgRgcjyiM7V5c0-55" vertex="1">
                    <mxGeometry y="52" width="140" height="26" as="geometry"/>
                </mxCell>
                <mxCell id="LFyHHrzgRgcjyiM7V5c0-58" value="+ field: type" style="text;strokeColor=none;fillColor=none;align=left;verticalAlign=top;spacingLeft=4;spacingRight=4;overflow=hidden;rotatable=0;points=[[0,0.5],[1,0.5]];portConstraint=eastwest;" parent="LFyHHrzgRgcjyiM7V5c0-55" vertex="1">
                    <mxGeometry y="78" width="140" height="26" as="geometry"/>
                </mxCell>
                <mxCell id="q7msI4KpLClDXLdM6Ijj-0" value="Classname" style="swimlane;fontStyle=0;childLayout=stackLayout;horizontal=1;startSize=26;horizontalStack=0;resizeParent=1;resizeParentMax=0;resizeLast=0;collapsible=1;marginBottom=0;" vertex="1" parent="LFyHHrzgRgcjyiM7V5c0-1">
                    <mxGeometry x="-660" y="10" width="140" height="104" as="geometry"/>
                </mxCell>
                <mxCell id="q7msI4KpLClDXLdM6Ijj-1" value="+ field: type" style="text;align=left;verticalAlign=top;spacingLeft=4;spacingRight=4;overflow=hidden;rotatable=0;points=[[0,0.5],[1,0.5]];portConstraint=eastwest;fillColor=#2A2A2A;" vertex="1" parent="q7msI4KpLClDXLdM6Ijj-0">
                    <mxGeometry y="26" width="140" height="26" as="geometry"/>
                </mxCell>
                <mxCell id="q7msI4KpLClDXLdM6Ijj-2" value="+ field: type" style="text;strokeColor=none;align=left;verticalAlign=top;spacingLeft=4;spacingRight=4;overflow=hidden;rotatable=0;points=[[0,0.5],[1,0.5]];portConstraint=eastwest;fillColor=#2a2a2a;" vertex="1" parent="q7msI4KpLClDXLdM6Ijj-0">
                    <mxGeometry y="52" width="140" height="26" as="geometry"/>
                </mxCell>
                <mxCell id="q7msI4KpLClDXLdM6Ijj-3" value="+ field: type" style="text;align=left;verticalAlign=top;spacingLeft=4;spacingRight=4;overflow=hidden;rotatable=0;points=[[0,0.5],[1,0.5]];portConstraint=eastwest;fillColor=#2a2a2a;" vertex="1" parent="q7msI4KpLClDXLdM6Ijj-0">
                    <mxGeometry y="78" width="140" height="26" as="geometry"/>
                </mxCell>
                <mxCell id="q7msI4KpLClDXLdM6Ijj-4" value="«interface»&#10;BankTransactionDAO" style="swimlane;fontStyle=0;childLayout=stackLayout;horizontal=1;startSize=26;horizontalStack=0;resizeParent=1;resizeParentMax=0;resizeLast=0;collapsible=1;marginBottom=0;" vertex="1" parent="LFyHHrzgRgcjyiM7V5c0-1">
                    <mxGeometry x="-898" y="198" width="140" height="104" as="geometry"/>
                </mxCell>
                <mxCell id="q7msI4KpLClDXLdM6Ijj-5" value="+ field: type" style="text;align=left;verticalAlign=top;spacingLeft=4;spacingRight=4;overflow=hidden;rotatable=0;points=[[0,0.5],[1,0.5]];portConstraint=eastwest;fillColor=#2A2A2A;" vertex="1" parent="q7msI4KpLClDXLdM6Ijj-4">
                    <mxGeometry y="26" width="140" height="26" as="geometry"/>
                </mxCell>
                <mxCell id="q7msI4KpLClDXLdM6Ijj-6" value="+ field: type" style="text;strokeColor=none;align=left;verticalAlign=top;spacingLeft=4;spacingRight=4;overflow=hidden;rotatable=0;points=[[0,0.5],[1,0.5]];portConstraint=eastwest;fillColor=#2a2a2a;" vertex="1" parent="q7msI4KpLClDXLdM6Ijj-4">
                    <mxGeometry y="52" width="140" height="26" as="geometry"/>
                </mxCell>
                <mxCell id="q7msI4KpLClDXLdM6Ijj-7" value="+ field: type" style="text;align=left;verticalAlign=top;spacingLeft=4;spacingRight=4;overflow=hidden;rotatable=0;points=[[0,0.5],[1,0.5]];portConstraint=eastwest;fillColor=#2a2a2a;" vertex="1" parent="q7msI4KpLClDXLdM6Ijj-4">
                    <mxGeometry y="78" width="140" height="26" as="geometry"/>
                </mxCell>
                <mxCell id="KY8qpmL1YI2WQRHDhyER-0" value="" style="shape=note;whiteSpace=wrap;html=1;backgroundOutline=1;darkOpacity=0.05;strokeColor=#000000;size=18;fillColor=#FFFFFF;" vertex="1" parent="LFyHHrzgRgcjyiM7V5c0-1">
                    <mxGeometry x="-190" y="630" width="100" height="70" as="geometry"/>
                </mxCell>
            </root>
        </mxGraphModel>
    </diagram>
</mxfile>